<?xml version="1.0" standalone="no"?>
<!DOCTYPE svg PUBLIC "-//W3C//DTD SVG 20010904//EN"
 "http://www.w3.org/TR/2001/REC-SVG-20010904/DTD/svg10.dtd">
<svg version="1.0" xmlns="http://www.w3.org/2000/svg"
 width="2339.000000pt" height="800.000000pt" viewBox="0 0 2339.000000 800.000000"
 preserveAspectRatio="xMidYMid meet">
<metadata>
Created by potrace 1.16, written by Peter Selinger 2001-2019
</metadata>
<g transform="translate(0.000000,800.000000) scale(0.100000,-0.100000)"
fill="#000000" stroke="none">
<path d="M6698 6321 c-31 -10 -76 -30 -100 -44 -62 -36 -155 -138 -183 -199
-92 -203 -29 -465 142 -590 83 -62 143 -80 274 -86 123 -5 189 7 273 50 44 23
156 125 156 142 0 11 -60 56 -75 56 -4 0 -32 -23 -62 -51 -82 -78 -126 -94
-258 -94 -98 0 -116 3 -167 27 -76 35 -148 104 -184 175 -26 53 -29 67 -29
158 0 87 3 107 27 157 37 79 98 142 177 181 62 30 72 32 176 32 100 0 115 -2
167 -28 32 -16 78 -48 103 -73 51 -49 66 -50 105 -9 l24 25 -53 54 c-60 61
-129 102 -205 122 -74 20 -238 17 -308 -5z"/>
<path d="M12405 6317 c-144 -54 -249 -166 -290 -311 -13 -43 -16 -86 -13 -165
3 -93 7 -114 34 -171 57 -120 163 -213 285 -251 85 -27 229 -26 310 1 194 66
319 242 319 450 0 209 -124 384 -318 449 -88 30 -243 29 -327 -2z m327 -111
c79 -37 143 -103 181 -184 28 -59 31 -77 31 -154 0 -82 -2 -92 -39 -164 -47
-92 -110 -150 -202 -184 -79 -30 -215 -26 -285 9 -75 36 -143 104 -180 179
-30 61 -33 74 -33 162 0 81 4 103 26 150 45 96 106 154 208 197 80 34 210 29
293 -11z"/>
<path d="M2965 6320 c-643 -49 -1219 -386 -1580 -925 -155 -232 -264 -507
-318 -800 -21 -112 -22 -149 -22 -575 0 -426 1 -463 22 -575 79 -430 298 -855
567 -1102 228 -209 516 -202 623 15 l28 57 0 306 0 306 -42 84 c-23 46 -69
118 -103 159 -34 41 -80 99 -103 129 l-41 54 34 29 c47 39 129 62 200 55 91
-8 211 -75 338 -189 86 -76 166 -132 249 -171 157 -73 335 -15 415 136 22 41
23 53 26 348 3 290 2 308 -18 359 -26 66 -90 166 -161 250 -30 36 -68 82 -83
103 -28 37 -28 38 -10 53 58 45 120 68 189 68 112 1 181 -37 436 -246 45 -37
116 -84 157 -105 69 -35 82 -38 156 -38 101 1 167 27 229 94 78 84 82 103 82
441 l0 295 -42 85 c-24 47 -63 110 -87 140 -25 30 -72 90 -106 132 l-61 78 47
30 c67 42 107 53 182 48 193 -13 431 -174 609 -412 181 -242 298 -497 369
-803 37 -159 37 -267 0 -428 -89 -384 -262 -709 -527 -989 -404 -426 -1002
-670 -1579 -642 -166 8 -331 36 -388 65 -126 64 -191 171 -227 374 -14 79 -14
70 -10 -208 5 -318 11 -361 68 -468 56 -106 150 -169 291 -193 364 -64 765
-22 1116 116 707 279 1205 926 1300 1690 13 110 13 830 0 940 -53 428 -242
847 -511 1135 -112 120 -262 217 -408 264 -191 62 -364 -22 -416 -202 -14 -48
-16 -98 -13 -334 3 -262 5 -281 26 -326 32 -70 100 -172 168 -252 33 -38 69
-83 81 -100 l21 -29 -35 -27 c-83 -67 -210 -76 -313 -24 -77 39 -164 99 -229
159 -166 152 -309 217 -434 196 -97 -16 -178 -74 -225 -164 l-27 -51 0 -310 0
-310 31 -65 c33 -69 89 -148 192 -275 35 -43 61 -82 59 -89 -7 -21 -92 -66
-148 -77 -80 -16 -148 1 -251 62 -45 27 -121 84 -168 125 -102 91 -225 169
-299 191 -147 42 -303 -29 -365 -167 l-27 -60 3 -307 3 -308 42 -78 c24 -43
64 -105 90 -138 27 -33 72 -90 101 -127 l53 -67 -32 -27 c-127 -108 -347 -65
-523 102 -279 265 -494 692 -561 1113 -14 88 -14 106 0 195 136 850 788 1532
1633 1707 284 59 616 57 765 -5 88 -36 154 -99 191 -180 24 -55 24 -56 16
-245 -5 -104 -9 -246 -9 -315 l1 -125 14 62 c7 33 18 114 23 180 14 153 14
699 0 783 -28 178 -137 288 -319 325 -85 17 -299 25 -425 15z"/>
<path d="M7410 5870 l0 -450 265 0 265 0 0 45 0 45 -215 0 -215 0 0 175 0 175
215 0 215 0 0 45 0 45 -215 0 -215 0 0 140 0 140 215 0 215 0 0 45 0 45 -265
0 -265 0 0 -450z"/>
<path d="M8060 5870 l0 -450 55 0 55 0 0 330 0 331 285 -328 c163 -187 294
-329 305 -331 20 -3 20 5 20 447 l0 451 -50 0 -50 0 0 -336 0 -335 -291 335
c-192 223 -297 336 -310 336 -18 0 -19 -14 -19 -450z"/>
<path d="M8890 6275 l0 -45 100 0 100 0 0 -405 0 -405 50 0 50 0 0 405 0 405
100 0 100 0 0 45 0 45 -250 0 -250 0 0 -45z"/>
<path d="M9490 5870 l0 -450 50 0 50 0 0 211 c0 205 0 210 20 207 13 -2 79
-80 178 -208 l157 -205 63 -3 c34 -2 62 0 62 3 0 3 -70 97 -156 208 l-156 202
64 7 c86 8 142 33 182 80 43 50 60 111 53 190 -8 95 -73 172 -166 198 -20 5
-118 10 -218 10 l-183 0 0 -450z m385 336 c39 -17 71 -60 80 -106 4 -26 0 -47
-17 -79 -35 -67 -72 -82 -223 -89 l-125 -5 0 153 0 153 127 -7 c69 -4 141 -13
158 -20z"/>
<path d="M10230 5870 l0 -450 265 0 265 0 0 45 0 45 -215 0 -215 0 0 175 0
175 215 0 215 0 0 45 0 45 -215 0 -215 0 0 140 0 140 215 0 215 0 0 45 0 45
-265 0 -265 0 0 -450z"/>
<path d="M11540 5870 l0 -450 50 0 50 0 0 220 0 220 180 0 180 0 0 45 0 45
-180 0 -180 0 0 140 0 140 180 0 180 0 0 45 0 45 -230 0 -230 0 0 -450z"/>
<path d="M13210 5870 l0 -450 50 0 50 0 0 211 c0 205 0 210 20 207 13 -2 79
-80 178 -208 l157 -205 63 -3 c34 -2 62 0 62 3 0 3 -70 97 -156 208 l-156 202
64 7 c86 8 142 33 182 80 43 50 60 111 53 190 -8 95 -73 172 -166 198 -20 5
-118 10 -218 10 l-183 0 0 -450z m385 336 c39 -17 71 -60 80 -106 4 -26 0 -47
-17 -79 -35 -67 -72 -82 -223 -89 l-125 -5 0 153 0 153 127 -7 c69 -4 141 -13
158 -20z"/>
<path d="M10005 4817 c-144 -54 -249 -166 -290 -311 -13 -43 -16 -86 -13 -165
3 -93 7 -114 34 -171 57 -120 163 -213 285 -251 85 -27 229 -26 310 1 194 66
319 242 319 450 0 209 -124 384 -318 449 -88 30 -243 29 -327 -2z m327 -111
c79 -37 143 -103 181 -184 28 -59 31 -77 31 -154 0 -82 -2 -92 -39 -164 -47
-92 -110 -150 -202 -184 -79 -30 -215 -26 -285 9 -75 36 -143 104 -180 179
-30 61 -33 74 -33 162 0 81 4 103 26 150 45 96 106 154 208 197 80 34 210 29
293 -11z"/>
<path d="M18404 4820 c-79 -26 -171 -86 -217 -142 -20 -24 -51 -75 -69 -114
-32 -67 -33 -73 -33 -195 0 -124 0 -126 37 -200 42 -84 123 -172 197 -213 72
-39 153 -56 266 -56 146 0 234 28 320 103 76 66 135 198 135 304 l0 43 -195 0
-195 0 0 -50 0 -50 141 0 140 0 -6 -22 c-26 -85 -75 -144 -157 -189 -61 -33
-66 -34 -178 -34 -108 0 -119 2 -182 32 -85 40 -151 106 -191 191 -28 58 -32
78 -32 147 0 66 5 90 27 137 37 80 105 149 186 189 57 28 81 34 155 37 73 4
98 1 150 -18 65 -24 151 -75 182 -110 25 -28 36 -25 76 16 l34 35 -35 30 c-65
55 -121 91 -183 117 -53 22 -80 26 -187 29 -104 2 -135 0 -186 -17z"/>
<path d="M21088 4821 c-31 -10 -76 -30 -100 -44 -62 -36 -155 -138 -183 -199
-92 -203 -29 -465 142 -590 83 -62 143 -80 274 -86 123 -5 189 7 273 50 44 23
156 125 156 142 0 11 -60 56 -75 56 -4 0 -32 -23 -62 -51 -82 -78 -126 -94
-258 -94 -98 0 -116 3 -167 27 -76 35 -148 104 -184 175 -26 53 -29 67 -29
158 0 87 3 107 27 157 37 79 98 142 177 181 62 30 72 32 176 32 100 0 115 -2
167 -28 32 -16 78 -48 103 -73 51 -49 66 -50 105 -9 l24 25 -53 54 c-60 61
-129 102 -205 122 -74 20 -238 17 -308 -5z"/>
<path d="M6410 4370 l0 -450 55 0 55 0 0 330 0 331 285 -328 c163 -187 294
-329 305 -331 20 -3 20 5 20 447 l0 451 -50 0 -50 0 0 -336 0 -335 -291 335
c-192 223 -297 336 -310 336 -18 0 -19 -14 -19 -450z"/>
<path d="M7330 4370 l0 -450 265 0 265 0 0 45 0 45 -215 0 -215 0 0 175 0 175
215 0 215 0 0 45 0 45 -215 0 -215 0 0 140 0 140 215 0 215 0 0 45 0 45 -265
0 -265 0 0 -450z"/>
<path d="M7920 4775 l0 -45 100 0 100 0 0 -405 0 -405 50 0 50 0 0 405 0 405
100 0 100 0 0 45 0 45 -250 0 -250 0 0 -45z"/>
<path d="M8501 4753 c10 -38 67 -240 127 -450 82 -295 111 -383 123 -383 11 0
52 92 145 325 71 179 131 325 134 325 3 0 62 -144 130 -321 113 -291 139 -344
157 -326 3 4 63 207 133 452 l127 445 -52 0 -52 0 -88 -309 c-49 -171 -91
-308 -94 -306 -4 2 -60 141 -126 309 -88 225 -124 306 -135 306 -12 0 -50 -84
-141 -316 l-125 -315 -89 315 -88 316 -53 0 -53 0 20 -67z"/>
<path d="M10830 4370 l0 -450 50 0 50 0 0 211 c0 205 0 210 20 207 13 -2 79
-80 178 -208 l157 -205 63 -3 c34 -2 62 0 62 3 0 3 -70 97 -156 208 l-156 202
64 7 c86 8 142 33 182 80 43 50 60 111 53 190 -8 95 -73 172 -166 198 -20 5
-118 10 -218 10 l-183 0 0 -450z m385 336 c39 -17 71 -60 80 -106 4 -26 0 -47
-17 -79 -35 -67 -72 -82 -223 -89 l-125 -5 0 153 0 153 127 -7 c69 -4 141 -13
158 -20z"/>
<path d="M11580 4370 l0 -450 55 0 55 0 2 200 3 199 185 -199 185 -200 69 0
70 0 -40 43 c-22 23 -127 135 -232 249 l-192 206 62 59 c35 33 132 123 215
201 l153 142 -71 0 -71 0 -166 -156 -167 -155 -3 155 -3 156 -54 0 -55 0 0
-450z"/>
<path d="M12320 4370 l0 -450 265 0 265 0 0 45 0 45 -215 0 -215 0 0 175 0
175 215 0 215 0 0 45 0 45 -215 0 -215 0 0 140 0 140 215 0 215 0 0 45 0 45
-265 0 -265 0 0 -450z"/>
<path d="M12990 4370 l0 -450 213 0 c281 0 345 18 439 118 81 86 118 188 118
322 0 236 -133 410 -344 449 -33 6 -142 11 -243 11 l-183 0 0 -450z m379 339
c121 -19 206 -83 258 -194 24 -52 28 -72 28 -155 0 -88 -3 -101 -33 -162 -37
-75 -73 -110 -150 -146 -44 -20 -78 -26 -190 -33 -76 -4 -149 -8 -164 -9 l-28
0 0 359 0 359 108 -5 c59 -2 136 -9 171 -14z"/>
<path d="M14250 4370 l0 -450 50 0 50 0 0 450 0 450 -50 0 -50 0 0 -450z"/>
<path d="M14550 4370 l0 -450 55 0 55 0 0 330 0 331 285 -328 c163 -187 294
-329 305 -331 20 -3 20 5 20 447 l0 451 -50 0 -50 0 0 -336 0 -335 -291 335
c-192 223 -297 336 -310 336 -18 0 -19 -14 -19 -450z"/>
<path d="M15390 4775 l0 -45 100 0 100 0 0 -405 0 -405 50 0 50 0 0 405 0 405
100 0 100 0 0 45 0 45 -250 0 -250 0 0 -45z"/>
<path d="M16000 4370 l0 -450 265 0 265 0 0 45 0 45 -215 0 -215 0 0 175 0
175 215 0 215 0 0 45 0 45 -215 0 -215 0 0 140 0 140 215 0 215 0 0 45 0 45
-265 0 -265 0 0 -450z"/>
<path d="M16670 4370 l0 -450 225 0 225 0 0 45 0 45 -175 0 -175 0 0 405 0
405 -50 0 -50 0 0 -450z"/>
<path d="M17250 4370 l0 -450 225 0 225 0 0 45 0 45 -175 0 -175 0 0 405 0
405 -50 0 -50 0 0 -450z"/>
<path d="M17820 4370 l0 -450 50 0 50 0 0 450 0 450 -50 0 -50 0 0 -450z"/>
<path d="M19200 4370 l0 -450 265 0 265 0 0 45 0 45 -215 0 -215 0 0 175 0
175 215 0 215 0 0 45 0 45 -215 0 -215 0 0 140 0 140 215 0 215 0 0 45 0 45
-265 0 -265 0 0 -450z"/>
<path d="M19870 4370 l0 -450 55 0 55 0 0 330 0 331 285 -328 c163 -187 294
-329 305 -331 20 -3 20 5 20 447 l0 451 -50 0 -50 0 0 -336 0 -335 -291 335
c-192 223 -297 336 -310 336 -18 0 -19 -14 -19 -450z"/>
<path d="M21810 4370 l0 -450 265 0 265 0 0 45 0 45 -215 0 -215 0 0 175 0
175 215 0 215 0 0 45 0 45 -215 0 -215 0 0 140 0 140 215 0 215 0 0 45 0 45
-265 0 -265 0 0 -450z"/>
<path d="M8326 3098 c-9 -12 -16 -34 -16 -48 0 -46 26 -70 75 -70 49 0 75 24
75 70 0 46 -26 70 -75 70 -34 0 -47 -5 -59 -22z"/>
<path d="M12676 3098 c-9 -12 -16 -34 -16 -48 0 -46 26 -70 75 -70 49 0 75 24
75 70 0 46 -26 70 -75 70 -34 0 -47 -5 -59 -22z"/>
<path d="M16794 3101 c-41 -25 -54 -66 -54 -167 l0 -84 -45 0 -45 0 0 -40 0
-40 45 0 45 0 0 -290 0 -290 50 0 50 0 0 290 0 290 65 0 65 0 0 40 0 40 -65 0
-65 0 0 78 c0 47 5 83 12 90 15 15 82 16 109 2 18 -10 19 -7 19 39 0 58 -5 61
-93 61 -43 0 -71 -6 -93 -19z"/>
<path d="M18946 3098 c-9 -12 -16 -34 -16 -48 0 -46 26 -70 75 -70 49 0 75 24
75 70 0 46 -26 70 -75 70 -34 0 -47 -5 -59 -22z"/>
<path d="M8050 2924 l0 -186 -25 31 c-14 16 -53 44 -87 60 -54 27 -72 31 -144
31 -107 0 -175 -25 -243 -88 -75 -70 -106 -145 -106 -252 0 -71 4 -94 26 -141
35 -73 85 -128 151 -164 45 -25 67 -30 144 -33 109 -5 169 11 238 64 l46 35 0
-46 0 -45 45 0 45 0 0 460 0 460 -45 0 -45 0 0 -186z m-156 -168 c49 -20 112
-81 135 -130 27 -55 28 -155 2 -211 -23 -51 -98 -118 -149 -133 -70 -21 -144
-15 -203 16 -238 124 -150 471 119 472 34 0 78 -6 96 -14z"/>
<path d="M12330 2980 l0 -130 -55 0 -55 0 0 -40 0 -40 55 0 55 0 0 -290 0
-290 50 0 50 0 0 290 0 290 70 0 70 0 0 40 0 40 -70 0 -70 0 0 130 0 130 -50
0 -50 0 0 -130z"/>
<path d="M13050 2980 l0 -130 -55 0 -55 0 0 -40 0 -40 55 0 55 0 0 -290 0
-290 50 0 50 0 0 290 0 290 70 0 70 0 0 40 0 40 -70 0 -70 0 0 130 0 130 -50
0 -50 0 0 -130z"/>
<path d="M14280 2980 l0 -130 -55 0 -55 0 0 -40 0 -40 55 0 55 0 0 -290 0
-290 50 0 50 0 0 290 0 290 70 0 70 0 0 40 0 40 -70 0 -70 0 0 130 0 130 -50
0 -50 0 0 -130z"/>
<path d="M17585 3091 c-80 -36 -120 -111 -113 -212 6 -77 38 -123 143 -207
124 -98 202 -177 215 -218 31 -94 -42 -184 -150 -184 -57 0 -99 28 -146 95
-20 30 -42 55 -47 55 -13 0 -77 -40 -77 -48 0 -13 52 -86 89 -126 52 -56 102
-76 189 -76 83 0 123 14 176 60 56 49 79 103 80 180 1 106 -50 182 -199 293
-110 82 -153 125 -166 164 -46 140 151 200 242 72 25 -36 36 -36 79 0 l34 28
-33 42 c-19 23 -57 55 -85 71 -43 25 -62 30 -121 30 -46 0 -84 -7 -110 -19z"/>
<path d="M6380 2640 l0 -450 50 0 50 0 0 450 0 450 -50 0 -50 0 0 -450z"/>
<path d="M10660 2640 l0 -450 50 0 50 0 0 450 0 450 -50 0 -50 0 0 -450z"/>
<path d="M6894 2842 c-22 -11 -57 -34 -77 -52 l-37 -32 0 46 0 46 -50 0 -50 0
0 -330 0 -330 50 0 50 0 0 191 c0 215 6 250 58 309 47 56 98 80 168 80 66 0
109 -22 139 -72 18 -30 20 -54 23 -270 l3 -238 51 0 50 0 -4 243 -3 243 -30
59 c-20 40 -45 69 -73 90 -40 27 -52 30 -135 33 -73 2 -100 -1 -133 -16z"/>
<path d="M8817 2846 c-97 -35 -185 -128 -213 -224 -36 -122 2 -269 90 -350 72
-67 118 -85 222 -90 109 -5 169 11 238 64 l46 35 0 -46 0 -45 45 0 45 0 0 330
0 330 -45 0 -45 0 0 -51 0 -51 -46 40 c-25 22 -66 48 -91 56 -57 20 -193 20
-246 2z m227 -90 c155 -65 206 -271 97 -397 -152 -178 -451 -71 -451 161 0
142 111 250 258 250 34 0 77 -6 96 -14z"/>
<path d="M9714 2842 c-22 -11 -57 -34 -77 -52 l-37 -32 0 46 0 46 -50 0 -50 0
0 -330 0 -330 50 0 50 0 0 191 c0 215 6 250 58 309 47 56 98 80 168 80 66 0
109 -22 139 -72 18 -30 20 -54 23 -270 l3 -238 51 0 50 0 -4 243 -3 243 -30
59 c-20 40 -45 69 -73 90 -40 27 -52 30 -135 33 -73 2 -100 -1 -133 -16z"/>
<path d="M11174 2842 c-22 -11 -57 -34 -77 -52 l-37 -32 0 46 0 46 -50 0 -50
0 0 -330 0 -330 50 0 50 0 0 191 c0 215 6 250 58 309 47 56 98 80 168 80 66 0
109 -22 139 -72 18 -30 20 -54 23 -270 l3 -238 51 0 50 0 -4 243 -3 243 -30
59 c-20 40 -45 69 -73 90 -40 27 -52 30 -135 33 -73 2 -100 -1 -133 -16z"/>
<path d="M11800 2838 c-54 -37 -73 -71 -78 -137 -3 -48 0 -67 19 -100 24 -43
46 -60 166 -130 40 -23 77 -50 83 -61 27 -51 -6 -121 -65 -136 -43 -11 -103 2
-140 30 -18 14 -38 26 -42 26 -5 0 -20 -14 -32 -31 l-23 -31 24 -25 c37 -41
95 -63 170 -63 78 0 112 11 151 48 43 40 57 75 57 137 0 93 -40 142 -170 211
-82 43 -110 73 -110 120 0 74 102 100 178 44 23 -16 46 -30 50 -30 5 0 19 11
32 25 31 33 22 49 -50 93 -47 28 -63 32 -121 32 -52 0 -73 -5 -99 -22z"/>
<path d="M14842 2843 c-60 -21 -146 -103 -178 -170 -39 -79 -45 -194 -14 -276
29 -78 86 -146 151 -182 48 -26 65 -30 159 -33 88 -3 114 0 161 17 64 24 127
75 160 128 22 35 22 36 3 50 -41 30 -60 27 -101 -18 -54 -60 -121 -89 -206
-89 -76 0 -116 13 -166 56 -38 32 -81 115 -81 157 l0 27 296 0 297 0 -5 58
c-11 116 -98 232 -204 271 -67 26 -206 28 -272 4z m221 -85 c50 -15 122 -81
142 -130 l15 -38 -241 0 -240 0 6 23 c13 45 62 103 110 129 56 31 137 37 208
16z"/>
<path d="M16059 2847 c-88 -33 -164 -103 -203 -186 -30 -66 -30 -216 1 -283
32 -71 103 -141 174 -173 57 -25 69 -27 163 -23 120 5 176 28 245 103 68 73
86 123 85 235 0 79 -4 103 -23 142 -33 67 -90 129 -152 163 -48 26 -65 30
-154 32 -66 2 -112 -1 -136 -10z m214 -92 c89 -37 157 -136 157 -229 0 -71
-18 -121 -64 -173 -53 -60 -103 -83 -187 -83 -109 0 -193 55 -235 155 -18 44
-18 146 0 189 20 48 80 111 129 135 51 25 147 28 200 6z"/>
<path d="M18351 2845 c-241 -78 -322 -386 -147 -560 28 -28 74 -62 101 -75 45
-23 62 -25 175 -25 113 0 130 2 174 24 56 28 136 100 136 123 0 8 -15 23 -34
33 l-34 19 -42 -38 c-61 -55 -113 -76 -190 -76 -84 0 -130 13 -182 53 -122 93
-132 280 -20 378 58 51 107 69 192 69 88 0 146 -22 202 -77 l38 -37 35 17 c19
9 35 23 35 32 0 27 -70 94 -128 122 -49 23 -72 27 -162 30 -71 2 -119 -2 -149
-12z"/>
<path d="M19422 2843 c-60 -21 -146 -103 -178 -170 -39 -79 -45 -194 -14 -276
29 -78 86 -146 151 -182 48 -26 65 -30 159 -33 88 -3 114 0 161 17 64 24 127
75 160 128 22 35 22 36 3 50 -41 30 -60 27 -101 -18 -54 -60 -121 -89 -206
-89 -76 0 -116 13 -166 56 -38 32 -81 115 -81 157 l0 27 296 0 297 0 -5 58
c-11 116 -98 232 -204 271 -67 26 -206 28 -272 4z m221 -85 c50 -15 122 -81
142 -130 l15 -38 -241 0 -240 0 6 23 c13 45 62 103 110 129 56 31 137 37 208
16z"/>
<path d="M20294 2842 c-22 -11 -57 -34 -77 -52 l-37 -32 0 46 0 46 -50 0 -50
0 0 -330 0 -330 50 0 50 0 0 191 c0 215 6 250 58 309 47 56 98 80 168 80 66 0
109 -22 139 -72 18 -30 20 -54 23 -270 l3 -238 51 0 50 0 -4 243 -3 243 -30
59 c-20 40 -45 69 -73 90 -40 27 -52 30 -135 33 -73 2 -100 -1 -133 -16z"/>
<path d="M21081 2845 c-241 -78 -322 -386 -147 -560 28 -28 74 -62 101 -75 45
-23 62 -25 175 -25 113 0 130 2 174 24 56 28 136 100 136 123 0 8 -15 23 -34
33 l-34 19 -42 -38 c-61 -55 -113 -76 -190 -76 -84 0 -130 13 -182 53 -122 93
-132 280 -20 378 58 51 107 69 192 69 88 0 146 -22 202 -77 l38 -37 35 17 c19
9 35 23 35 32 0 27 -70 94 -128 122 -49 23 -72 27 -162 30 -71 2 -119 -2 -149
-12z"/>
<path d="M21882 2843 c-60 -21 -146 -103 -178 -170 -39 -79 -45 -194 -14 -276
29 -78 86 -146 151 -182 48 -26 65 -30 159 -33 88 -3 114 0 161 17 64 24 127
75 160 128 22 35 22 36 3 50 -41 30 -60 27 -101 -18 -54 -60 -121 -89 -206
-89 -76 0 -116 13 -166 56 -38 32 -81 115 -81 157 l0 27 296 0 297 0 -5 58
c-11 116 -98 232 -204 271 -67 26 -206 28 -272 4z m221 -85 c50 -15 122 -81
142 -130 l15 -38 -241 0 -240 0 6 23 c13 45 62 103 110 129 56 31 137 37 208
16z"/>
<path d="M8340 2520 l0 -330 45 0 45 0 0 330 0 330 -45 0 -45 0 0 -330z"/>
<path d="M12690 2520 l0 -330 45 0 45 0 0 330 0 330 -45 0 -45 0 0 -330z"/>
<path d="M13423 2618 c3 -163 8 -245 18 -273 18 -54 103 -137 155 -153 53 -15
185 -16 236 0 56 17 121 78 149 140 22 50 24 67 27 286 l4 232 -51 0 -51 0 0
-212 c0 -117 -5 -229 -10 -250 -13 -46 -77 -105 -125 -114 -69 -13 -142 0
-183 33 -68 55 -72 70 -72 321 l0 222 -51 0 -51 0 5 -232z"/>
<path d="M18960 2520 l0 -330 45 0 45 0 0 330 0 330 -45 0 -45 0 0 -330z"/>
</g>
</svg>
